PathFileType   4   (X/Y/Z)
DataRate	CameraRate	NumFrames	NumMarkers	Units	OrigDataRate	OrigDataStartFrame	OrigNumFrames
120.0	120.0	7	37	mm	120.0	18	136
Frame#	Time	midhip	hip_r	hip_l	knee_r	knee_l	ankle_r	ankle_l	midasis	asis_r	asis_l	psis_r	psis_l	epicondLat_r	epicondLat_l	epicondMed_r	epicondMed_l	malleolusLat_r	malleolusLat_l	malleolusMedv_r	malleolusMedv_l	neck	subclavicle_r	subclavicle_l	sternalnotch	xyphoidprocess	thighwand_r	thighwand_l	upperleg1_r	upperleg1_l	upperleg2_r	upperleg2_l	shankwand_r	shankwand_l	lowerleg1_r	lowerleg1_l	toe_r	toe_l
 	 	X1	Y1	Z1	X2	Y2	Z2	X3	Y3	Z3	X4	Y4	Z4	X5	Y5	Z5	X6	Y6	Z6	X7	Y7	Z7	X8	Y8	Z8	X9	Y9	Z9	X10	Y10	Z10	X11	Y11	Z11	X12	Y12	Z12	X13	Y13	Z13	X14	Y14	Z14	X15	Y15	Z15	X16	Y16	Z16	X17	Y17	Z17	X18	Y18	Z18	X19	Y19	Z19	X20	Y20	Z20	X21	Y21	Z21	X22	Y22	Z22	X23	Y23	Z23	X24	Y24	Z24	X25	Y25	Z25	X26	Y26	Z26	X27	Y27	Z27	X28	Y28	Z28	X29	Y29	Z29	X30	Y30	Z30	X31	Y31	Z31	X32	Y32	Z32	X33	Y33	Z33	X34	Y34	Z34	X35	Y35	Z35	X36	Y36	Z36	X37	Y37	Z37

	18	0.27500	197.381	688.880	-216.305	189.651	696.450	-151.847	191.859	694.254	-277.638	239.222	384.808	-188.808	253.125	381.678	-299.298	195.305	55.861	-192.128	27.244	159.093	-288.272	256.711	758.592	-214.689	255.049	760.245	-120.017	258.372	756.939	-309.361	111.453	798.563	-196.618	109.130	792.489	-250.948	240.785	379.108	-138.655	242.851	383.053	-348.212	234.491	383.622	-239.136	276.791	371.720	-246.791	192.990	55.833	-158.708	17.505	167.389	-320.312	191.842	66.226	-218.265	31.453	168.760	-259.946	149.132	1144.623	-212.314	230.124	1098.657	-149.787	225.977	1101.681	-279.027	222.514	1088.614	-217.047	243.302	946.283	-220.322	230.093	458.065	-51.079	363.652	505.816	-354.283	255.176	528.205	-110.395	299.444	545.607	-283.688	274.744	449.239	-135.684	305.258	458.312	-278.770	200.436	155.423	-82.322	147.230	170.210	-349.354	210.843	211.219	-141.075	153.723	249.585	-319.734	291.333	37.858	-197.022	71.959	82.775	-305.053
	19	0.28333	204.287	689.363	-216.737	196.558	696.660	-152.149	198.665	694.980	-277.949	241.698	384.597	-189.175	266.794	383.474	-299.720	195.417	55.970	-192.495	47.850	154.921	-289.003	263.525	759.104	-214.790	261.941	760.368	-120.151	265.110	757.840	-309.429	118.467	798.908	-196.695	115.987	792.963	-251.115	243.074	378.846	-139.023	257.119	384.785	-348.757	236.986	383.479	-239.626	288.745	374.044	-247.176	193.129	55.955	-159.074	37.879	162.971	-321.035	191.906	66.187	-218.563	51.873	164.426	-260.617	156.253	1145.138	-212.278	237.281	1099.162	-149.875	232.969	1102.040	-278.929	229.592	1089.059	-217.087	250.213	946.693	-220.164	233.316	457.994	-51.427	375.424	510.349	-352.953	259.415	527.648	-110.704	309.339	548.376	-282.854	277.966	448.440	-136.051	316.402	461.287	-278.262	201.341	155.409	-82.669	167.393	169.499	-350.043	212.282	211.099	-141.610	171.795	248.663	-320.033	291.420	37.835	-197.228	95.631	80.912	-306.565
	20	0.29167	211.163	689.766	-217.212	203.452	696.796	-152.485	205.411	695.618	-278.293	244.122	384.393	-189.540	280.161	385.210	-300.050	195.533	56.091	-192.842	68.809	150.373	-289.705	270.290	759.547	-214.956	268.816	760.433	-120.356	271.763	758.661	-309.557	125.450	799.158	-196.805	122.770	793.328	-251.310	245.299	378.597	-139.388	271.110	386.476	-349.208	239.582	383.404	-240.302	301.677	376.200	-247.448	193.261	56.091	-159.419	58.655	158.099	-321.759	191.952	66.180	-218.821	72.628	159.744	-261.271	163.333	1145.577	-212.222	244.510	1099.501	-149.939	239.910	1102.254	-278.947	236.652	1089.409	-217.157	257.055	946.941	-220.083	236.472	457.941	-51.785	386.902	514.756	-351.494	263.672	527.089	-111.073	318.267	551.161	-282.063	281.231	447.588	-136.549	327.567	464.293	-277.674	202.198	155.416	-83.014	187.898	168.629	-350.489	213.606	211.028	-142.108	189.975	247.566	-320.363	291.498	37.818	-197.424	119.679	78.811	-307.812
	21	0.30000	218.009	690.090	-217.723	210.333	696.860	-152.853	212.107	696.160	-278.667	246.470	384.192	-189.886	293.219	386.874	-300.301	195.652	56.224	-193.159	90.117	145.494	-290.398	277.007	759.923	-215.185	275.674	760.449	-120.627	278.340	759.396	-309.744	132.388	799.315	-196.954	129.487	793.575	-251.539	247.453	378.365	-139.733	284.783	388.108	-349.568	243.214	383.185	-241.027	315.310	378.422	-247.699	193.384	56.242	-159.735	79.817	152.844	-322.493	192.035	66.214	-219.203	93.599	154.866	-261.955	170.374	1145.980	-212.237	251.759	1099.757	-150.092	246.830	1102.450	-279.118	243.695	1089.669	-217.266	263.908	947.144	-220.203	239.586	457.916	-52.138	398.049	519.003	-350.005	267.830	526.589	-111.505	327.255	553.956	-281.339	284.861	446.848	-137.001	339.045	467.371	-277.166	202.992	155.444	-83.347	208.672	167.669	-350.773	214.640	210.987	-142.492	208.157	246.356	-320.783	291.566	37.807	-197.600	144.064	76.534	-308.842
	22	0.30833	224.824	690.334	-218.263	217.202	696.855	-153.250	218.759	696.601	-279.069	248.720	383.994	-190.199	305.965	388.461	-300.475	195.770	56.371	-193.443	111.770	140.334	-291.097	283.680	760.230	-215.475	282.511	760.422	-120.961	284.850	760.039	-309.989	139.267	799.379	-197.151	136.147	793.700	-251.805	249.530	378.152	-140.045	298.103	389.665	-349.839	248.030	382.816	-241.700	327.973	380.770	-247.602	193.494	56.408	-160.020	101.342	147.280	-323.241	192.143	66.273	-219.570	114.799	149.737	-262.671	177.411	1146.247	-212.273	258.934	1099.963	-150.218	253.737	1102.644	-279.388	250.723	1089.846	-217.421	270.846	947.334	-220.409	242.684	457.926	-52.470	408.836	523.051	-348.578	271.940	526.184	-111.971	336.542	556.598	-280.690	288.919	446.321	-137.299	350.144	470.294	-276.568	203.720	155.491	-83.658	229.638	166.690	-350.978	215.487	210.990	-142.773	226.328	245.069	-321.143	291.622	37.803	-197.753	168.747	74.146	-309.714
	23	0.31667	231.600	690.501	-218.825	224.057	696.786	-153.671	225.375	696.936	-279.492	250.858	383.800	-190.470	318.400	389.962	-300.575	195.885	56.533	-193.696	133.764	134.953	-291.813	290.312	760.469	-215.818	289.323	760.356	-121.347	291.302	760.582	-310.289	146.075	799.354	-197.402	142.767	793.703	-252.112	251.530	377.960	-140.313	311.042	391.128	-350.017	245.953	382.382	-240.582	339.876	383.060	-247.278	193.594	56.588	-160.275	123.208	141.490	-324.001	192.167	66.373	-219.769	136.345	144.311	-263.418	184.454	1146.370	-212.299	266.121	1100.086	-150.343	260.600	1102.738	-279.654	257.737	1089.950	-217.622	277.827	947.439	-220.600	245.791	457.970	-52.769	419.245	526.860	-347.298	276.321	525.684	-112.405	345.467	559.098	-280.107	290.146	445.453	-137.109	360.683	472.981	-275.895	204.391	155.557	-83.939	250.721	165.761	-351.174	216.328	211.044	-142.991	244.557	243.826	-321.472	291.670	37.804	-197.885	193.692	71.713	-310.484
	24	0.32500	238.326	690.591	-219.406	230.894	696.655	-154.109	231.958	697.163	-279.933	252.876	383.611	-190.693	330.522	391.373	-300.597	195.995	56.709	-193.926	156.089	129.421	-292.547	296.906	760.636	-216.210	296.107	760.255	-121.778	297.705	761.018	-310.642	152.806	799.244	-197.714	149.359	793.585	-252.465	253.456	377.790	-140.533	323.578	392.480	-350.100	247.330	382.108	-240.363	353.848	385.260	-247.407	193.687	56.780	-160.505	145.391	135.554	-324.768	192.119	66.449	-219.928	157.866	138.807	-264.141	191.511	1146.435	-212.363	273.299	1100.125	-150.611	267.413	1102.749	-279.946	264.740	1089.982	-217.863	284.703	947.452	-220.882	248.930	458.046	-53.027	429.264	530.390	-346.229	280.183	525.358	-112.733	354.224	561.511	-279.639	292.731	444.833	-137.208	372.049	475.858	-275.621	205.018	155.638	-84.188	271.858	164.939	-351.412	217.144	211.145	-143.207	262.701	242.618	-321.825	291.713	37.810	-197.999	218.860	69.300	-311.206
